<svg id="svg" xmlns="http://www.w3.org/2000/svg" xmlns:xlink="http://www.w3.org/1999/xlink" width="400" height="400" viewBox="0, 0, 400,400"><g id="svgg"><path id="path0" d="M155.000 66.158 C 61.513 97.716,32.028 152.217,32.007 293.500 L 32.000 340.000 105.000 340.000 L 178.000 340.000 178.000 255.000 L 178.000 170.000 160.000 170.000 C 139.555 170.000,139.657 170.117,146.771 154.837 C 151.620 144.423,162.686 132.184,172.486 126.395 L 178.000 123.138 178.000 91.569 C 178.000 67.625,177.396 60.010,175.500 60.041 C 174.125 60.064,164.900 62.817,155.000 66.158 M343.648 66.707 C 253.841 97.669,225.242 148.418,222.603 281.500 L 221.443 340.000 294.722 340.000 L 368.000 340.000 368.000 255.000 L 368.000 170.000 350.277 170.000 L 332.555 170.000 333.504 165.031 C 335.262 155.836,346.922 139.240,357.351 131.090 L 367.702 123.000 367.851 91.500 C 367.964 67.545,367.401 60.004,365.500 60.018 C 364.125 60.028,354.292 63.038,343.648 66.707 " stroke="none" fill="#000000" fill-rule="evenodd"></path></g></svg>